<svg width="61" height="61" viewBox="0 0 61 61" fill="none" xmlns="http://www.w3.org/2000/svg">
<g clip-path="url(#clip0_6_1335)">
<path d="M2.67154 4.1582C2.17252 4.1582 1.69394 4.35644 1.34108 4.7093C0.988214 5.06216 0.789978 5.54074 0.789978 6.03977C0.789978 6.53879 0.988214 7.01737 1.34108 7.37023C1.69394 7.72309 2.17252 7.92133 2.67154 7.92133H6.84861L8.35762 13.9687L13.9948 44.0172C14.0755 44.4484 14.3043 44.8378 14.6417 45.1182C14.9791 45.3985 15.4038 45.5522 15.8425 45.5526H19.6056C17.6095 45.5526 15.6952 46.3455 14.2837 47.757C12.8723 49.1684 12.0794 51.0827 12.0794 53.0788C12.0794 55.0749 12.8723 56.9892 14.2837 58.4007C15.6952 59.8121 17.6095 60.6051 19.6056 60.6051C21.6017 60.6051 23.516 59.8121 24.9275 58.4007C26.3389 56.9892 27.1319 55.0749 27.1319 53.0788C27.1319 51.0827 26.3389 49.1684 24.9275 47.757C23.516 46.3455 21.6017 45.5526 19.6056 45.5526H45.9475C43.9514 45.5526 42.0371 46.3455 40.6256 47.757C39.2142 49.1684 38.4212 51.0827 38.4212 53.0788C38.4212 55.0749 39.2142 56.9892 40.6256 58.4007C42.0371 59.8121 43.9514 60.6051 45.9475 60.6051C47.9436 60.6051 49.8579 59.8121 51.2693 58.4007C52.6808 56.9892 53.4737 55.0749 53.4737 53.0788C53.4737 51.0827 52.6808 49.1684 51.2693 47.757C49.8579 46.3455 47.9436 45.5526 45.9475 45.5526H49.7106C50.1493 45.5522 50.574 45.3985 50.9114 45.1182C51.2488 44.8378 51.4776 44.4484 51.5583 44.0172L57.203 13.9122C57.2538 13.6407 57.2442 13.3612 57.1749 13.0938C57.1056 12.8264 56.9782 12.5775 56.8018 12.3648C56.6254 12.1522 56.4044 11.981 56.1544 11.8634C55.9044 11.7458 55.6316 11.6847 55.3553 11.6845H11.6654L10.1413 5.58443C10.0398 5.1772 9.80497 4.81562 9.47426 4.55719C9.14355 4.29876 8.73593 4.15832 8.31623 4.1582H2.67154ZM23.3687 53.0788C23.3687 54.0769 22.9723 55.034 22.2665 55.7398C21.5608 56.4455 20.6036 56.842 19.6056 56.842C18.6076 56.842 17.6504 56.4455 16.9447 55.7398C16.239 55.034 15.8425 54.0769 15.8425 53.0788C15.8425 52.0808 16.239 51.1236 16.9447 50.4179C17.6504 49.7122 18.6076 49.3157 19.6056 49.3157C20.6036 49.3157 21.5608 49.7122 22.2665 50.4179C22.9723 51.1236 23.3687 52.0808 23.3687 53.0788ZM49.7106 53.0788C49.7106 54.0769 49.3141 55.034 48.6084 55.7398C47.9027 56.4455 46.9455 56.842 45.9475 56.842C44.9494 56.842 43.9923 56.4455 43.2865 55.7398C42.5808 55.034 42.1844 54.0769 42.1844 53.0788C42.1844 52.0808 42.5808 51.1236 43.2865 50.4179C43.9923 49.7122 44.9494 49.3157 45.9475 49.3157C46.9455 49.3157 47.9027 49.7122 48.6084 50.4179C49.3141 51.1236 49.7106 52.0808 49.7106 53.0788ZM43.5165 24.306L32.2271 35.5953C32.0523 35.7706 31.8447 35.9096 31.6161 36.0044C31.3875 36.0993 31.1425 36.1481 30.895 36.1481C30.6475 36.1481 30.4024 36.0993 30.1738 36.0044C29.9452 35.9096 29.7376 35.7706 29.5628 35.5953L23.9181 29.9507C23.7432 29.7757 23.6044 29.568 23.5098 29.3395C23.4151 29.1109 23.3664 28.8659 23.3664 28.6185C23.3664 28.3711 23.4151 28.1261 23.5098 27.8976C23.6044 27.669 23.7432 27.4613 23.9181 27.2864C24.0931 27.1114 24.3008 26.9727 24.5293 26.878C24.7579 26.7833 25.0029 26.7346 25.2503 26.7346C25.4977 26.7346 25.7427 26.7833 25.9712 26.878C26.1998 26.9727 26.4075 27.1114 26.5824 27.2864L30.895 31.6027L40.8522 21.6417C41.0271 21.4667 41.2348 21.328 41.4634 21.2333C41.692 21.1386 41.937 21.0899 42.1844 21.0899C42.4318 21.0899 42.6767 21.1386 42.9053 21.2333C43.1339 21.328 43.3416 21.4667 43.5165 21.6417C43.6914 21.8166 43.8302 22.0243 43.9249 22.2529C44.0196 22.4814 44.0683 22.7264 44.0683 22.9738C44.0683 23.2212 44.0196 23.4662 43.9249 23.6948C43.8302 23.9234 43.6914 24.131 43.5165 24.306Z" fill="#860038"/>
</g>
<defs>
<clipPath id="clip0_6_1335">
<rect width="60.21" height="60.21" fill="white" transform="translate(0.789978 0.39502)"/>
</clipPath>
</defs>
</svg>
