<svg width="24" height="24" viewBox="0 0 24 24" fill="none" xmlns="http://www.w3.org/2000/svg">
<path d="M17.8898 20.85H6.1098C5.79211 20.8503 5.48351 20.7441 5.23333 20.5483C4.98316 20.3525 4.80586 20.0785 4.7298 19.77L2.07979 9.16004C2.05394 9.05675 2.05198 8.94892 2.07408 8.84476C2.09618 8.7406 2.14175 8.64286 2.20732 8.55897C2.27289 8.47507 2.35673 8.40724 2.45247 8.36064C2.54821 8.31404 2.65332 8.28989 2.75979 8.29004H21.2398C21.3463 8.28989 21.4514 8.31404 21.5471 8.36064C21.6429 8.40724 21.7267 8.47507 21.7923 8.55897C21.8578 8.64286 21.9034 8.7406 21.9255 8.84476C21.9476 8.94892 21.9457 9.05675 21.9198 9.16004L19.2698 19.77C19.1937 20.0785 19.0164 20.3525 18.7663 20.5483C18.5161 20.7441 18.2075 20.8503 17.8898 20.85V20.85Z" stroke="white" stroke-width="1.5" stroke-linecap="round" stroke-linejoin="round"/>
<path d="M9.79978 3.1499L6.89978 8.2899" stroke="white" stroke-width="1.5" stroke-linecap="round" stroke-linejoin="round"/>
<path d="M13.88 3.1499L16.79 8.2899" stroke="white" stroke-width="1.5" stroke-linecap="round" stroke-linejoin="round"/>
</svg>
