<svg width="146" height="62" viewBox="0 0 146 62" fill="none" xmlns="http://www.w3.org/2000/svg">
<path d="M3.87016 27.6914C3.70956 27.0985 3.70954 26.4742 3.87009 25.8813C4.03065 25.2884 4.34611 24.7477 4.78479 24.3137L13.9257 15.2687C14.3643 14.8346 14.9107 14.5225 15.5099 14.3636C16.1091 14.2047 16.74 14.2048 17.3392 14.3637L25.8928 16.6316C25.9819 15.472 26.3898 14.3587 27.0726 13.4122L16.7704 10.681C16.0309 10.4849 15.2523 10.4849 14.5129 10.681C13.7734 10.877 13.0992 11.2622 12.5578 11.7978L1.27728 22.9599C0.735993 23.4956 0.346722 24.1628 0.1486 24.8945C-0.0495279 25.6262 -0.0495345 26.3966 0.148587 27.1283L3.01495 37.7133C3.95197 37.0053 5.06756 36.5655 6.23995 36.4422L3.87016 27.6914Z" fill="#FDBB30"/>
<path d="M33.2225 23.4594L35.6715 32.5026C35.8321 33.0957 35.8319 33.7199 35.6715 34.3127C35.5108 34.9057 35.1953 35.4463 34.7566 35.8804L25.6157 44.9255C25.1771 45.3596 24.6307 45.6716 24.0314 45.8306C23.4323 45.9893 22.8013 45.9893 22.2022 45.8306L13.3585 43.4856C13.234 44.6458 12.7896 45.7497 12.0739 46.6768L22.7712 49.5131C23.5106 49.7092 24.2892 49.7092 25.0286 49.5131C25.7682 49.3169 26.4424 48.9319 26.9838 48.3962L38.2643 37.2341C38.8057 36.6984 39.1948 36.0313 39.393 35.2994C39.5912 34.5678 39.5912 33.7973 39.393 33.0657L36.4186 22.0844C35.5014 22.8252 34.3954 23.301 33.2225 23.4594Z" fill="#FDBB30"/>
<path d="M1.85441 41.7976C2.05429 40.8035 2.54766 39.8899 3.27213 39.1732C4.24435 38.2134 5.56166 37.6743 6.93503 37.6743C8.30841 37.6743 9.62572 38.2134 10.5979 39.1732C11.3224 39.8899 11.8158 40.8035 12.0156 41.7976C12.2156 42.792 12.113 43.8227 11.7209 44.7593C11.3288 45.6958 10.6649 46.4964 9.81298 47.0597C8.96112 47.6228 7.95957 47.9235 6.93503 47.9235C5.91048 47.9235 4.90896 47.6228 4.05707 47.0597C3.20521 46.4964 2.54125 45.6958 2.14919 44.7593C1.75711 43.8227 1.65452 42.792 1.85441 41.7976Z" fill="#FDBB30"/>
<path d="M28.6751 13.5075C27.9507 14.2243 27.4572 15.1376 27.2575 16.132C27.0576 17.1263 27.1601 18.1569 27.5522 19.0935C27.9443 20.0301 28.6082 20.8307 29.46 21.3939C30.312 21.9572 31.3135 22.2578 32.3379 22.2578C33.3626 22.2578 34.3641 21.9572 35.2161 21.3939C36.0679 20.8307 36.7317 20.0301 37.1238 19.0935C37.5159 18.1569 37.6185 17.1263 37.4186 16.132C37.2189 15.1376 36.7253 14.2243 36.0009 13.5075C35.0288 12.5476 33.7114 12.0086 32.3379 12.0086C30.9647 12.0086 29.6472 12.5476 28.6751 13.5075Z" fill="#FDBB30"/>
<path d="M22.1953 43.6041C22.3963 43.6573 22.6033 43.6843 22.8113 43.6843C23.1241 43.6851 23.4338 43.6247 23.7227 43.5062C24.0117 43.388 24.2742 43.214 24.4947 42.9947L32.8036 34.7731C33.0987 34.4802 33.3109 34.1159 33.419 33.7165C33.5273 33.3172 33.5275 32.8968 33.4201 32.4971L31.1893 24.2572C29.7412 24.0309 28.3958 23.377 27.3296 22.3813C26.2633 21.3856 25.5258 20.0945 25.2137 18.677L17.3455 16.5908C16.9417 16.4837 16.5166 16.4837 16.1128 16.5907C15.7091 16.6978 15.3409 16.9081 15.0454 17.2006L6.73652 25.4225C6.44152 25.7153 6.22933 26.0795 6.12118 26.4789C6.01303 26.8782 6.01273 27.2987 6.12026 27.6982L8.28928 35.7078C9.73072 35.9748 11.0569 36.6669 12.0939 37.693C13.1308 38.719 13.8302 40.0313 14.1001 41.4576L22.1953 43.6041Z" fill="#FDBB30"/>
<path d="M46.1024 22V7.65599H51.0084C52.0058 7.65599 52.9004 7.766 53.6924 7.98599C54.4844 8.19133 55.1151 8.55066 55.5844 9.064C56.0538 9.57733 56.2884 10.296 56.2884 11.22C56.2884 11.8507 56.1198 12.474 55.7824 13.09C55.4598 13.6913 55.0051 14.102 54.4184 14.322V14.41C55.1518 14.6007 55.7604 14.9747 56.2444 15.532C56.7431 16.0747 56.9924 16.8227 56.9924 17.776C56.9924 18.7587 56.7431 19.558 56.2444 20.174C55.7458 20.79 55.0784 21.252 54.2424 21.56C53.4064 21.8533 52.4678 22 51.4264 22H46.1024ZM49.3364 13.398H50.8544C51.6464 13.398 52.2184 13.244 52.5704 12.936C52.9371 12.628 53.1204 12.2173 53.1204 11.704C53.1204 11.1467 52.9371 10.7507 52.5704 10.516C52.2038 10.2813 51.6391 10.164 50.8764 10.164H49.3364V13.398ZM49.3364 19.492H51.1624C52.9371 19.492 53.8244 18.8467 53.8244 17.556C53.8244 16.9253 53.6044 16.478 53.1644 16.214C52.7244 15.9353 52.0571 15.796 51.1624 15.796H49.3364V19.492Z" fill="white"/>
<path d="M62.4368 22.264C61.2488 22.264 60.3834 21.8753 59.8408 21.098C59.3128 20.306 59.0488 19.228 59.0488 17.864V11.088H62.2828V17.446C62.2828 18.2233 62.3928 18.766 62.6128 19.074C62.8328 19.3673 63.1774 19.514 63.6468 19.514C64.0574 19.514 64.4021 19.4187 64.6808 19.228C64.9594 19.0373 65.2601 18.7293 65.5828 18.304V11.088H68.8168V22H66.1768L65.9348 20.482H65.8688C65.4141 21.0247 64.9154 21.4573 64.3728 21.78C63.8301 22.1027 63.1848 22.264 62.4368 22.264Z" fill="white"/>
<path d="M74.8747 22.264C74.156 22.264 73.4153 22.1247 72.6527 21.846C71.9047 21.5673 71.252 21.2007 70.6947 20.746L72.1467 18.722C72.6453 19.0887 73.122 19.3747 73.5767 19.58C74.046 19.7707 74.508 19.866 74.9627 19.866C75.4467 19.866 75.7987 19.7853 76.0187 19.624C76.2387 19.448 76.3487 19.2207 76.3487 18.942C76.3487 18.6927 76.2387 18.4873 76.0187 18.326C75.8133 18.1647 75.542 18.018 75.2047 17.886C74.8673 17.7393 74.508 17.5927 74.1267 17.446C73.6867 17.27 73.2467 17.05 72.8067 16.786C72.3813 16.522 72.022 16.1847 71.7287 15.774C71.4353 15.3487 71.2887 14.8353 71.2887 14.234C71.2887 13.222 71.67 12.4007 72.4327 11.77C73.21 11.1393 74.222 10.824 75.4687 10.824C76.3047 10.824 77.038 10.9707 77.6687 11.264C78.314 11.5427 78.864 11.858 79.3187 12.21L77.8667 14.146C77.4853 13.8527 77.104 13.6253 76.7227 13.464C76.3413 13.3027 75.96 13.222 75.5787 13.222C74.7427 13.222 74.3247 13.508 74.3247 14.08C74.3247 14.432 74.53 14.7033 74.9407 14.894C75.366 15.07 75.8573 15.2607 76.4147 15.466C76.884 15.6273 77.3387 15.84 77.7787 16.104C78.2333 16.3533 78.6073 16.6907 78.9007 17.116C79.2087 17.5267 79.3627 18.0693 79.3627 18.744C79.3627 19.7267 78.9813 20.5627 78.2187 21.252C77.456 21.9267 76.3413 22.264 74.8747 22.264Z" fill="white"/>
<path d="M81.4166 22V11.088H84.6506V22H81.4166ZM83.0226 9.482C82.4799 9.482 82.0399 9.328 81.7026 9.01999C81.3652 8.712 81.1966 8.30133 81.1966 7.78799C81.1966 7.27466 81.3652 6.86399 81.7026 6.55599C82.0399 6.24799 82.4799 6.09399 83.0226 6.09399C83.5652 6.09399 84.0052 6.24799 84.3426 6.55599C84.6799 6.86399 84.8486 7.27466 84.8486 7.78799C84.8486 8.30133 84.6799 8.712 84.3426 9.01999C84.0052 9.328 83.5652 9.482 83.0226 9.482Z" fill="white"/>
<path d="M87.4966 22V11.088H90.1366L90.3566 12.474H90.4446C90.914 12.034 91.4273 11.6527 91.9846 11.33C92.5566 10.9927 93.2093 10.824 93.9426 10.824C95.1306 10.824 95.9886 11.22 96.5166 12.012C97.0593 12.7893 97.3306 13.86 97.3306 15.224V22H94.0966V15.642C94.0966 14.85 93.9866 14.3073 93.7666 14.014C93.5613 13.7207 93.224 13.574 92.7546 13.574C92.344 13.574 91.992 13.6693 91.6986 13.86C91.4053 14.036 91.0826 14.2927 90.7306 14.63V22H87.4966Z" fill="white"/>
<path d="M104.97 22.264C103.929 22.264 102.99 22.0367 102.154 21.582C101.318 21.1273 100.658 20.4747 100.174 19.624C99.6905 18.7733 99.4485 17.7467 99.4485 16.544C99.4485 15.356 99.6905 14.3367 100.174 13.486C100.673 12.6353 101.318 11.9827 102.11 11.528C102.902 11.0587 103.731 10.824 104.596 10.824C105.638 10.824 106.496 11.0587 107.17 11.528C107.86 11.9827 108.373 12.606 108.71 13.398C109.062 14.1753 109.238 15.0627 109.238 16.06C109.238 16.3387 109.224 16.6173 109.194 16.896C109.165 17.16 109.136 17.358 109.106 17.49H102.572C102.719 18.282 103.049 18.8687 103.562 19.25C104.076 19.6167 104.692 19.8 105.41 19.8C106.188 19.8 106.972 19.558 107.764 19.074L108.842 21.032C108.285 21.4133 107.662 21.714 106.972 21.934C106.283 22.154 105.616 22.264 104.97 22.264ZM102.55 15.356H106.488C106.488 14.7547 106.342 14.2633 106.048 13.882C105.77 13.486 105.308 13.288 104.662 13.288C104.164 13.288 103.716 13.464 103.32 13.816C102.924 14.1533 102.668 14.6667 102.55 15.356Z" fill="white"/>
<path d="M114.685 22.264C113.967 22.264 113.226 22.1247 112.463 21.846C111.715 21.5673 111.063 21.2007 110.505 20.746L111.957 18.722C112.456 19.0887 112.933 19.3747 113.387 19.58C113.857 19.7707 114.319 19.866 114.773 19.866C115.257 19.866 115.609 19.7853 115.829 19.624C116.049 19.448 116.159 19.2207 116.159 18.942C116.159 18.6927 116.049 18.4873 115.829 18.326C115.624 18.1647 115.353 18.018 115.015 17.886C114.678 17.7393 114.319 17.5927 113.937 17.446C113.497 17.27 113.057 17.05 112.617 16.786C112.192 16.522 111.833 16.1847 111.539 15.774C111.246 15.3487 111.099 14.8353 111.099 14.234C111.099 13.222 111.481 12.4007 112.243 11.77C113.021 11.1393 114.033 10.824 115.279 10.824C116.115 10.824 116.849 10.9707 117.479 11.264C118.125 11.5427 118.675 11.858 119.129 12.21L117.677 14.146C117.296 13.8527 116.915 13.6253 116.533 13.464C116.152 13.3027 115.771 13.222 115.389 13.222C114.553 13.222 114.135 13.508 114.135 14.08C114.135 14.432 114.341 14.7033 114.751 14.894C115.177 15.07 115.668 15.2607 116.225 15.466C116.695 15.6273 117.149 15.84 117.589 16.104C118.044 16.3533 118.418 16.6907 118.711 17.116C119.019 17.5267 119.173 18.0693 119.173 18.744C119.173 19.7267 118.792 20.5627 118.029 21.252C117.267 21.9267 116.152 22.264 114.685 22.264Z" fill="white"/>
<path d="M124.439 22.264C123.72 22.264 122.98 22.1247 122.217 21.846C121.469 21.5673 120.816 21.2007 120.259 20.746L121.711 18.722C122.21 19.0887 122.686 19.3747 123.141 19.58C123.61 19.7707 124.072 19.866 124.527 19.866C125.011 19.866 125.363 19.7853 125.583 19.624C125.803 19.448 125.913 19.2207 125.913 18.942C125.913 18.6927 125.803 18.4873 125.583 18.326C125.378 18.1647 125.106 18.018 124.769 17.886C124.432 17.7393 124.072 17.5927 123.691 17.446C123.251 17.27 122.811 17.05 122.371 16.786C121.946 16.522 121.586 16.1847 121.293 15.774C121 15.3487 120.853 14.8353 120.853 14.234C120.853 13.222 121.234 12.4007 121.997 11.77C122.774 11.1393 123.786 10.824 125.033 10.824C125.869 10.824 126.602 10.9707 127.233 11.264C127.878 11.5427 128.428 11.858 128.883 12.21L127.431 14.146C127.05 13.8527 126.668 13.6253 126.287 13.464C125.906 13.3027 125.524 13.222 125.143 13.222C124.307 13.222 123.889 13.508 123.889 14.08C123.889 14.432 124.094 14.7033 124.505 14.894C124.93 15.07 125.422 15.2607 125.979 15.466C126.448 15.6273 126.903 15.84 127.343 16.104C127.798 16.3533 128.172 16.6907 128.465 17.116C128.773 17.5267 128.927 18.0693 128.927 18.744C128.927 19.7267 128.546 20.5627 127.783 21.252C127.02 21.9267 125.906 22.264 124.439 22.264Z" fill="white"/>
<path d="M50.5244 50.264C49.6004 50.264 48.7278 50.044 47.9064 49.604C47.0998 49.1493 46.4471 48.4967 45.9484 47.646C45.4498 46.7807 45.2004 45.7467 45.2004 44.544C45.2004 43.3267 45.4498 42.2927 45.9484 41.442C46.4471 40.5913 47.0998 39.946 47.9064 39.506C48.7278 39.0513 49.6004 38.824 50.5244 38.824C51.4484 38.824 52.3138 39.0513 53.1204 39.506C53.9271 39.946 54.5798 40.5913 55.0784 41.442C55.5771 42.2927 55.8264 43.3267 55.8264 44.544C55.8264 45.7467 55.5771 46.7807 55.0784 47.646C54.5798 48.4967 53.9271 49.1493 53.1204 49.604C52.3138 50.044 51.4484 50.264 50.5244 50.264ZM50.5244 47.646C51.1844 47.646 51.6831 47.3673 52.0204 46.81C52.3578 46.238 52.5264 45.4827 52.5264 44.544C52.5264 43.5907 52.3578 42.8353 52.0204 42.278C51.6831 41.7207 51.1844 41.442 50.5244 41.442C49.8498 41.442 49.3438 41.7207 49.0064 42.278C48.6838 42.8353 48.5224 43.5907 48.5224 44.544C48.5224 45.4827 48.6838 46.238 49.0064 46.81C49.3438 47.3673 49.8498 47.646 50.5244 47.646Z" fill="white"/>
<path d="M58.0416 50V39.088H60.6816L60.9016 40.474H60.9896C61.4589 40.034 61.9722 39.6527 62.5296 39.33C63.1016 38.9927 63.7542 38.824 64.4876 38.824C65.6756 38.824 66.5336 39.22 67.0616 40.012C67.6042 40.7893 67.8756 41.86 67.8756 43.224V50H64.6416V43.642C64.6416 42.85 64.5316 42.3073 64.3116 42.014C64.1062 41.7207 63.7689 41.574 63.2996 41.574C62.8889 41.574 62.5369 41.6693 62.2436 41.86C61.9502 42.036 61.6276 42.2927 61.2756 42.63V50H58.0416Z" fill="white"/>
<path d="M79.2377 50.264C77.8884 50.264 76.9204 49.8753 76.3337 49.098C75.7617 48.3207 75.4757 47.3013 75.4757 46.04V41.618H73.9797V39.22L75.6517 39.088L76.0257 36.184H78.7097V39.088H81.3277V41.618H78.7097V45.996C78.7097 46.612 78.8344 47.0593 79.0837 47.338C79.3477 47.602 79.6924 47.734 80.1177 47.734C80.2937 47.734 80.4697 47.712 80.6457 47.668C80.8364 47.624 81.005 47.5727 81.1517 47.514L81.6577 49.868C81.379 49.956 81.0344 50.044 80.6237 50.132C80.2277 50.22 79.7657 50.264 79.2377 50.264Z" fill="white"/>
<path d="M83.4576 50V34.578H86.6916V38.362L86.5376 40.32C86.9482 39.9533 87.4249 39.616 87.9676 39.308C88.5249 38.9853 89.1702 38.824 89.9036 38.824C91.0916 38.824 91.9496 39.22 92.4776 40.012C93.0202 40.7893 93.2916 41.86 93.2916 43.224V50H90.0576V43.642C90.0576 42.85 89.9476 42.3073 89.7276 42.014C89.5222 41.7207 89.1849 41.574 88.7156 41.574C88.3049 41.574 87.9529 41.6693 87.6596 41.86C87.3662 42.036 87.0436 42.2927 86.6916 42.63V50H83.4576Z" fill="white"/>
<path d="M100.91 50.264C99.8686 50.264 98.9299 50.0367 98.0939 49.582C97.2579 49.1273 96.5979 48.4747 96.1139 47.624C95.6299 46.7733 95.3879 45.7467 95.3879 44.544C95.3879 43.356 95.6299 42.3367 96.1139 41.486C96.6126 40.6353 97.2579 39.9827 98.0499 39.528C98.8419 39.0587 99.6706 38.824 100.536 38.824C101.577 38.824 102.435 39.0587 103.11 39.528C103.799 39.9827 104.313 40.606 104.65 41.398C105.002 42.1753 105.178 43.0627 105.178 44.06C105.178 44.3387 105.163 44.6173 105.134 44.896C105.105 45.16 105.075 45.358 105.046 45.49H98.5119C98.6586 46.282 98.9886 46.8687 99.5019 47.25C100.015 47.6167 100.631 47.8 101.35 47.8C102.127 47.8 102.912 47.558 103.704 47.074L104.782 49.032C104.225 49.4133 103.601 49.714 102.912 49.934C102.223 50.154 101.555 50.264 100.91 50.264ZM98.4899 43.356H102.428C102.428 42.7547 102.281 42.2633 101.988 41.882C101.709 41.486 101.247 41.288 100.602 41.288C100.103 41.288 99.6559 41.464 99.2599 41.816C98.8639 42.1533 98.6073 42.6667 98.4899 43.356Z" fill="white"/>
<path d="M115.711 54.642C114.86 54.642 114.09 54.5467 113.401 54.356C112.712 54.1653 112.162 53.8647 111.751 53.454C111.34 53.0433 111.135 52.5153 111.135 51.87C111.135 50.99 111.656 50.2567 112.697 49.67V49.582C112.418 49.3913 112.176 49.1493 111.971 48.856C111.78 48.5627 111.685 48.1887 111.685 47.734C111.685 47.338 111.802 46.9567 112.037 46.59C112.272 46.2233 112.565 45.9227 112.917 45.688V45.6C112.536 45.336 112.191 44.9547 111.883 44.456C111.59 43.9573 111.443 43.3927 111.443 42.762C111.443 41.882 111.656 41.156 112.081 40.584C112.506 39.9973 113.064 39.5573 113.753 39.264C114.442 38.9707 115.176 38.824 115.953 38.824C116.598 38.824 117.163 38.912 117.647 39.088H121.629V41.442H119.891C119.994 41.6033 120.074 41.8087 120.133 42.058C120.206 42.3073 120.243 42.5787 120.243 42.872C120.243 43.708 120.052 44.3973 119.671 44.94C119.29 45.4827 118.776 45.886 118.131 46.15C117.486 46.414 116.76 46.546 115.953 46.546C115.528 46.546 115.088 46.4727 114.633 46.326C114.369 46.546 114.237 46.8173 114.237 47.14C114.237 47.4187 114.362 47.624 114.611 47.756C114.86 47.888 115.286 47.954 115.887 47.954H117.647C118.996 47.954 120.023 48.174 120.727 48.614C121.446 49.0393 121.805 49.7433 121.805 50.726C121.805 51.474 121.556 52.1413 121.057 52.728C120.558 53.3293 119.854 53.7987 118.945 54.136C118.036 54.4733 116.958 54.642 115.711 54.642ZM115.953 44.588C116.378 44.588 116.73 44.434 117.009 44.126C117.302 43.818 117.449 43.3633 117.449 42.762C117.449 42.19 117.302 41.7573 117.009 41.464C116.73 41.156 116.378 41.002 115.953 41.002C115.528 41.002 115.168 41.1487 114.875 41.442C114.596 41.7353 114.457 42.1753 114.457 42.762C114.457 43.3633 114.596 43.818 114.875 44.126C115.168 44.434 115.528 44.588 115.953 44.588ZM116.217 52.618C116.95 52.618 117.552 52.486 118.021 52.222C118.49 51.958 118.725 51.6427 118.725 51.276C118.725 50.9387 118.578 50.7113 118.285 50.594C118.006 50.4767 117.596 50.418 117.053 50.418H115.931C115.564 50.418 115.256 50.4033 115.007 50.374C114.772 50.3593 114.567 50.33 114.391 50.286C113.995 50.638 113.797 50.9973 113.797 51.364C113.797 51.7747 114.017 52.0827 114.457 52.288C114.912 52.508 115.498 52.618 116.217 52.618Z" fill="white"/>
<path d="M127.868 50.264C126.944 50.264 126.072 50.044 125.25 49.604C124.444 49.1493 123.791 48.4967 123.292 47.646C122.794 46.7807 122.544 45.7467 122.544 44.544C122.544 43.3267 122.794 42.2927 123.292 41.442C123.791 40.5913 124.444 39.946 125.25 39.506C126.072 39.0513 126.944 38.824 127.868 38.824C128.792 38.824 129.658 39.0513 130.464 39.506C131.271 39.946 131.924 40.5913 132.422 41.442C132.921 42.2927 133.17 43.3267 133.17 44.544C133.17 45.7467 132.921 46.7807 132.422 47.646C131.924 48.4967 131.271 49.1493 130.464 49.604C129.658 50.044 128.792 50.264 127.868 50.264ZM127.868 47.646C128.528 47.646 129.027 47.3673 129.364 46.81C129.702 46.238 129.87 45.4827 129.87 44.544C129.87 43.5907 129.702 42.8353 129.364 42.278C129.027 41.7207 128.528 41.442 127.868 41.442C127.194 41.442 126.688 41.7207 126.35 42.278C126.028 42.8353 125.866 43.5907 125.866 44.544C125.866 45.4827 126.028 46.238 126.35 46.81C126.688 47.3673 127.194 47.646 127.868 47.646Z" fill="white"/>
</svg>
