<svg width="61" height="62" viewBox="0 0 61 62" fill="none" xmlns="http://www.w3.org/2000/svg">
<g clip-path="url(#clip0_6_1343)">
<path fill-rule="evenodd" clip-rule="evenodd" d="M31.689 8.59805C31.4403 8.48228 31.1693 8.4223 30.895 8.4223C30.6207 8.4223 30.3497 8.48228 30.101 8.59805L1.87756 21.769C1.5452 21.9241 1.26544 22.173 1.07266 22.485C0.87989 22.797 0.782513 23.1586 0.792508 23.5252C0.802504 23.8919 0.919436 24.2476 1.12893 24.5487C1.33841 24.8497 1.63132 25.083 1.97163 25.2198L30.1951 36.5091C30.6443 36.6892 31.1457 36.6892 31.5949 36.5091L53.4738 27.7636V49.8156C52.4757 49.8156 51.5186 50.212 50.8128 50.9177C50.1071 51.6235 49.7106 52.5806 49.7106 53.5787V61.1049H61V53.5787C61 52.5806 60.6035 51.6235 59.8978 50.9177C59.1921 50.212 58.2349 49.8156 57.2369 49.8156V26.2546L59.8184 25.2198C60.1587 25.083 60.4516 24.8497 60.6611 24.5487C60.8706 24.2476 60.9875 23.8919 60.9975 23.5252C61.0075 23.1586 60.9101 22.797 60.7174 22.485C60.5246 22.173 60.2448 21.9241 59.9125 21.769L31.689 8.59805Z" fill="#860038"/>
<path fill-rule="evenodd" clip-rule="evenodd" d="M16.5049 34.8835C16.2626 34.7923 16.0041 34.752 15.7456 34.7652C15.487 34.7784 15.2339 34.8449 15.0022 34.9604C14.7705 35.0759 14.5651 35.238 14.3989 35.4365C14.2327 35.635 14.1093 35.8657 14.0363 36.1141L12.1547 42.5114C12.023 42.9605 12.0633 43.4426 12.2679 43.8636C12.4724 44.2846 12.8266 44.6142 13.2611 44.7881L30.1952 51.5617C30.6444 51.7418 31.1458 51.7418 31.595 51.5617L48.5291 44.7881C48.9637 44.6142 49.3178 44.2846 49.5224 43.8636C49.7269 43.4426 49.7673 42.9605 49.6355 42.5114L47.7539 36.1141C47.6809 35.8657 47.5575 35.635 47.3913 35.4365C47.2251 35.238 47.0197 35.0759 46.788 34.9604C46.5563 34.8449 46.3032 34.7784 46.0447 34.7652C45.7861 34.752 45.5276 34.7923 45.2853 34.8835L30.8951 40.2799L16.5049 34.8835Z" fill="#860038"/>
</g>
<defs>
<clipPath id="clip0_6_1343">
<rect width="60.21" height="60.21" fill="white" transform="translate(0.789978 0.89502)"/>
</clipPath>
</defs>
</svg>
