<svg width="61" height="62" viewBox="0 0 61 62" fill="none" xmlns="http://www.w3.org/2000/svg">
<g clip-path="url(#clip0_6_1327)">
<path d="M44.9776 39.8185C48.6214 34.8462 50.2534 28.6814 49.5472 22.5576C48.8409 16.4337 45.8484 10.8023 41.1684 6.78999C36.4884 2.77771 30.466 0.68046 24.3061 0.917812C18.1462 1.15516 12.3031 3.70962 7.94569 8.07012C3.5883 12.4306 1.03803 18.2756 0.805083 24.4357C0.572139 30.5958 2.6737 36.6166 6.68933 41.2938C10.705 45.9709 16.3385 48.9593 22.4629 49.6612C28.5873 50.3631 34.7509 48.7267 39.7205 45.0793H39.7167C39.8296 45.2298 39.9501 45.3728 40.0855 45.5121L54.5736 60.0001C55.2792 60.7062 56.2364 61.1031 57.2346 61.1034C58.2329 61.1038 59.1904 60.7076 59.8965 60.002C60.6026 59.2964 60.9995 58.3391 60.9999 57.3409C61.0002 56.3426 60.604 55.3851 59.8984 54.679L45.4103 40.191C45.2758 40.0548 45.1311 39.929 44.9776 39.8147V39.8185ZM45.9485 25.353C45.9485 28.071 45.4131 30.7624 44.373 33.2735C43.3329 35.7846 41.8083 38.0662 39.8864 39.9881C37.9645 41.91 35.6829 43.4346 33.1718 44.4747C30.6607 45.5148 27.9693 46.0502 25.2513 46.0502C22.5333 46.0502 19.8419 45.5148 17.3308 44.4747C14.8197 43.4346 12.5381 41.91 10.6162 39.9881C8.69426 38.0662 7.16971 35.7846 6.12958 33.2735C5.08945 30.7624 4.5541 28.071 4.5541 25.353C4.5541 19.8638 6.73469 14.5994 10.6162 10.7179C14.4976 6.8364 19.7621 4.65581 25.2513 4.65581C30.7405 4.65581 36.0049 6.8364 39.8864 10.7179C43.7679 14.5994 45.9485 19.8638 45.9485 25.353Z" fill="#860038"/>
</g>
<defs>
<clipPath id="clip0_6_1327">
<rect width="60.21" height="60.21" fill="white" transform="translate(0.789978 0.89502)"/>
</clipPath>
</defs>
</svg>
